# xmcd
#
# Track frame offsets: 
#        150
#        23474
#        46274
#        65549
#        89325
#        111600
#        130425
#        160500
#        175800
#        199500
#
# Disc length: 3069 seconds
#
# Revision: 0
# Processed by: cddbd v1.5.2PL0 Copyright (c) Steve Scherf et al.
# Submitted via: ExactAudioCopyFreeDBPlugin 1.0
#
DISCID=7e0bfb0a
DTITLE=Macy Gray - Stripped
DYEAR=2016
DGENRE=R&B
TTITLE0=Annabelle
TTITLE1=Sweet Baby
TTITLE2=I Try
TTITLE3=Slowly
TTITLE4=She Ain’t Right for You
TTITLE5=First Time
TTITLE6=Nothing Else Matters
TTITLE7=Redemption Song
TTITLE8=The Heart
TTITLE9=Lucy
EXTD=
EXTT0=
EXTT1=
EXTT2=
EXTT3=
EXTT4=
EXTT5=
EXTT6=
EXTT7=
EXTT8=
EXTT9=
PLAYORDER=
